G04 Generated by Ultiboard 14.3 *
%FSLAX34Y34*%
%MOMM*%

%ADD10C,0.0001*%
%ADD11C,0.0010*%
%ADD12C,0.1270*%
%ADD13C,2.03200*%
%ADD14C,4.57200*%
%ADD15C,6.60400*%
%ADD16C,5.58800*%
%ADD17C,1.4000*%
%ADD18R,1.4000X1.4000*%
%ADD19C,1.2446*%
%ADD20R,1.2446X1.2446*%
%ADD21C,1.3556*%
%ADD22C,1.6088*%
%ADD23C,1.1556*%
%ADD24C,2.4978*%
%ADD25C,1.5366*%
%ADD26R,1.5366X1.5366*%
%ADD27C,1.5000*%
%ADD28R,1.5000X1.5000*%
%ADD29C,1.0000*%
%ADD30C,1.2000*%
%ADD31C,3.0000*%
%ADD32C,5.0000*%
%ADD33C,4.0000*%
%ADD34C,1.2700*%


G04 ColorRGB FF00CC for the following layer *
%LNSolder Mask Top*%
%LPD*%
G54D10*
G54D11*
G36*
X1785520Y656680D02*
X1785520Y656680D01*
X1785520Y666680D01*
X1769520Y666680D01*
X1769520Y656680D01*
X1785520Y656680D01*
D02*
G37*
X1785520Y666680D01*
X1769520Y666680D01*
X1769520Y656680D01*
X1785520Y656680D01*
G36*
X1812520Y622680D02*
X1812520Y622680D01*
X1802520Y622680D01*
X1802520Y606680D01*
X1812520Y606680D01*
X1812520Y622680D01*
D02*
G37*
X1802520Y622680D01*
X1802520Y606680D01*
X1812520Y606680D01*
X1812520Y622680D01*
G36*
X1752520Y622680D02*
X1752520Y622680D01*
X1742520Y622680D01*
X1742520Y606680D01*
X1752520Y606680D01*
X1752520Y622680D01*
D02*
G37*
X1742520Y622680D01*
X1742520Y606680D01*
X1752520Y606680D01*
X1752520Y622680D01*
G54D12*
X-12700Y-2540D02*
X-12700Y131064D01*
X-12700Y-2540D02*
X177800Y-2540D01*
X1892300Y-2540D02*
X1701800Y-2540D01*
X1892300Y-2540D02*
X1892300Y131064D01*
X1892300Y1333500D02*
X1892300Y1199896D01*
X1892300Y1333500D02*
X1701800Y1333500D01*
X-12700Y1333500D02*
X177800Y1333500D01*
X-12700Y1333500D02*
X-12700Y1199896D01*
X-62700Y-2540D02*
X-162700Y-2540D01*
X-112700Y-52540D02*
X-112700Y47460D01*
X-150200Y-2540D02*
G75*
D01*
G02X-150200Y-2540I37500J0*
G01*
X1942300Y-2540D02*
X2042300Y-2540D01*
X1992300Y-52540D02*
X1992300Y47460D01*
X1954800Y-2540D02*
G75*
D01*
G02X1954800Y-2540I37500J0*
G01*
X1979800Y-2540D02*
G75*
D01*
G02X1979800Y-2540I12500J0*
G01*
X-62700Y1333500D02*
X-162700Y1333500D01*
X-112700Y1283500D02*
X-112700Y1383500D01*
X-150200Y1333500D02*
G75*
D01*
G02X-150200Y1333500I37500J0*
G01*
X-137700Y1333500D02*
G75*
D01*
G02X-137700Y1333500I25000J0*
G01*
X-125200Y1333500D02*
G75*
D01*
G02X-125200Y1333500I12500J0*
G01*
G54D13*
X1772920Y408940D03*
G54D14*
X1831340Y200660D03*
X1833880Y1130300D03*
X45720Y1130300D03*
X45720Y200660D03*
G54D15*
X1831340Y271780D03*
X1833880Y1059180D03*
X45720Y1059180D03*
X45720Y271780D03*
G54D16*
X1831340Y347980D03*
X1833880Y982980D03*
X45720Y982980D03*
X45720Y347980D03*
G54D17*
X81280Y631920D03*
X218440Y631920D03*
X355600Y631920D03*
X327660Y144240D03*
X690880Y1039960D03*
X716280Y1039960D03*
X741680Y1039960D03*
X767080Y1039960D03*
X792480Y1039960D03*
X767080Y902800D03*
X792480Y902800D03*
X833120Y1039960D03*
X883920Y1039960D03*
X909320Y1039960D03*
X858520Y1039960D03*
X909320Y902800D03*
X883920Y902800D03*
X1026160Y1039960D03*
X975360Y1039960D03*
X949960Y1039960D03*
X1000760Y1039960D03*
X817880Y902800D03*
X1325880Y1039960D03*
X1351280Y1039960D03*
X1376680Y1039960D03*
X1402080Y1039960D03*
X1427480Y1039960D03*
X1452880Y1039960D03*
X1117600Y1207600D03*
X1143000Y1207600D03*
X1168400Y1207600D03*
X1193800Y1207600D03*
X1219200Y1207600D03*
X1427480Y902800D03*
X1452880Y902800D03*
X1478280Y902800D03*
X1493520Y1039960D03*
X1518920Y1039960D03*
X1544320Y1039960D03*
X1569720Y1039960D03*
X1595120Y902800D03*
X1569720Y902800D03*
X1544320Y902800D03*
X1610360Y1039960D03*
X1635760Y1039960D03*
X1661160Y1039960D03*
X1686560Y1039960D03*
X1711960Y1039960D03*
X1737360Y1039960D03*
X1762760Y1039960D03*
X411480Y1207600D03*
X436880Y1207600D03*
X462280Y1207600D03*
X487680Y1207600D03*
X513080Y1207600D03*
X665480Y1039960D03*
X648800Y1285240D03*
X1349840Y1285240D03*
X345440Y907880D03*
X934720Y902800D03*
X1000760Y902800D03*
X1026160Y902800D03*
X1051560Y902800D03*
X205740Y1114520D03*
X241300Y1114520D03*
X1678400Y822960D03*
X218040Y111760D03*
G54D18*
X81280Y756920D03*
X218440Y756920D03*
X355600Y756920D03*
X327660Y269240D03*
X690780Y949960D03*
X716180Y949960D03*
X741580Y949960D03*
X766980Y949960D03*
X792380Y949960D03*
X766980Y812800D03*
X792380Y812800D03*
X833020Y949960D03*
X883820Y949960D03*
X909220Y949960D03*
X858420Y949960D03*
X909220Y812800D03*
X883820Y812800D03*
X1026060Y949960D03*
X975260Y949960D03*
X949860Y949960D03*
X1000660Y949960D03*
X817780Y812800D03*
X1325780Y949960D03*
X1351180Y949960D03*
X1376580Y949960D03*
X1401980Y949960D03*
X1427380Y949960D03*
X1452780Y949960D03*
X1117500Y1117600D03*
X1142900Y1117600D03*
X1168300Y1117600D03*
X1193700Y1117600D03*
X1219100Y1117600D03*
X1427380Y812800D03*
X1452780Y812800D03*
X1478180Y812800D03*
X1493420Y949960D03*
X1518820Y949960D03*
X1544220Y949960D03*
X1569620Y949960D03*
X1595020Y812800D03*
X1569620Y812800D03*
X1544220Y812800D03*
X1610260Y949960D03*
X1635660Y949960D03*
X1661060Y949960D03*
X1686460Y949960D03*
X1711860Y949960D03*
X1737260Y949960D03*
X1762660Y949960D03*
X411380Y1117600D03*
X436780Y1117600D03*
X462180Y1117600D03*
X487580Y1117600D03*
X512980Y1117600D03*
X665380Y949960D03*
X558800Y1285340D03*
X1259840Y1285340D03*
X345340Y817880D03*
X934620Y812800D03*
X1000660Y812800D03*
X1026060Y812800D03*
X1051460Y812800D03*
X205740Y1239520D03*
X241300Y1239520D03*
X1803400Y822960D03*
X193040Y111760D03*
G54D19*
X1480820Y91440D03*
X1557020Y142240D03*
X1557020Y116840D03*
X1557020Y167640D03*
X1557020Y218440D03*
X1557020Y193040D03*
X1557020Y243840D03*
X1557020Y269240D03*
X1480820Y243840D03*
X1480820Y167640D03*
X1480820Y142240D03*
X1480820Y116840D03*
X1480820Y218440D03*
X1480820Y193040D03*
X1480820Y269240D03*
X1348740Y340360D03*
X1424940Y391160D03*
X1424940Y365760D03*
X1424940Y416560D03*
X1424940Y467360D03*
X1424940Y441960D03*
X1424940Y492760D03*
X1424940Y518160D03*
X1348740Y492760D03*
X1348740Y416560D03*
X1348740Y391160D03*
X1348740Y365760D03*
X1348740Y467360D03*
X1348740Y441960D03*
X1348740Y518160D03*
X1084580Y848360D03*
X1160780Y899160D03*
X1160780Y873760D03*
X1160780Y924560D03*
X1160780Y975360D03*
X1160780Y949960D03*
X1160780Y1000760D03*
X1160780Y1026160D03*
X1084580Y1000760D03*
X1084580Y924560D03*
X1084580Y899160D03*
X1084580Y873760D03*
X1084580Y975360D03*
X1084580Y949960D03*
X1084580Y1026160D03*
X1216660Y594360D03*
X1292860Y645160D03*
X1292860Y619760D03*
X1292860Y670560D03*
X1292860Y721360D03*
X1292860Y695960D03*
X1292860Y746760D03*
X1292860Y772160D03*
X1216660Y746760D03*
X1216660Y670560D03*
X1216660Y645160D03*
X1216660Y619760D03*
X1216660Y721360D03*
X1216660Y695960D03*
X1216660Y772160D03*
X769620Y518160D03*
X693420Y467360D03*
X693420Y492760D03*
X693420Y441960D03*
X693420Y391160D03*
X693420Y416560D03*
X693420Y365760D03*
X693420Y340360D03*
X769620Y365760D03*
X769620Y441960D03*
X769620Y467360D03*
X769620Y492760D03*
X769620Y391160D03*
X769620Y416560D03*
X769620Y340360D03*
X901700Y518160D03*
X825500Y467360D03*
X825500Y492760D03*
X825500Y441960D03*
X825500Y391160D03*
X825500Y416560D03*
X825500Y365760D03*
X825500Y340360D03*
X901700Y365760D03*
X901700Y441960D03*
X901700Y467360D03*
X901700Y492760D03*
X901700Y391160D03*
X901700Y416560D03*
X901700Y340360D03*
X1557020Y518160D03*
X1480820Y467360D03*
X1480820Y492760D03*
X1480820Y441960D03*
X1480820Y391160D03*
X1480820Y416560D03*
X1480820Y365760D03*
X1480820Y340360D03*
X1557020Y365760D03*
X1557020Y441960D03*
X1557020Y467360D03*
X1557020Y492760D03*
X1557020Y391160D03*
X1557020Y416560D03*
X1557020Y340360D03*
X637540Y772160D03*
X561340Y721360D03*
X561340Y746760D03*
X561340Y695960D03*
X561340Y645160D03*
X561340Y670560D03*
X561340Y619760D03*
X561340Y594360D03*
X637540Y619760D03*
X637540Y695960D03*
X637540Y721360D03*
X637540Y746760D03*
X637540Y645160D03*
X637540Y670560D03*
X637540Y594360D03*
X769620Y772160D03*
X693420Y721360D03*
X693420Y746760D03*
X693420Y695960D03*
X693420Y645160D03*
X693420Y670560D03*
X693420Y619760D03*
X693420Y594360D03*
X769620Y619760D03*
X769620Y695960D03*
X769620Y721360D03*
X769620Y746760D03*
X769620Y645160D03*
X769620Y670560D03*
X769620Y594360D03*
X1424940Y772160D03*
X1348740Y721360D03*
X1348740Y746760D03*
X1348740Y695960D03*
X1348740Y645160D03*
X1348740Y670560D03*
X1348740Y619760D03*
X1348740Y594360D03*
X1424940Y619760D03*
X1424940Y695960D03*
X1424940Y721360D03*
X1424940Y746760D03*
X1424940Y645160D03*
X1424940Y670560D03*
X1424940Y594360D03*
X637540Y1026160D03*
X561340Y975360D03*
X561340Y1000760D03*
X561340Y949960D03*
X561340Y899160D03*
X561340Y924560D03*
X561340Y873760D03*
X561340Y848360D03*
X637540Y873760D03*
X637540Y949960D03*
X637540Y975360D03*
X637540Y1000760D03*
X637540Y899160D03*
X637540Y924560D03*
X637540Y848360D03*
X1292860Y1026160D03*
X1216660Y975360D03*
X1216660Y1000760D03*
X1216660Y949960D03*
X1216660Y899160D03*
X1216660Y924560D03*
X1216660Y873760D03*
X1216660Y848360D03*
X1292860Y873760D03*
X1292860Y949960D03*
X1292860Y975360D03*
X1292860Y1000760D03*
X1292860Y899160D03*
X1292860Y924560D03*
X1292860Y848360D03*
X1033780Y269240D03*
X957580Y218440D03*
X957580Y243840D03*
X957580Y193040D03*
X957580Y142240D03*
X957580Y167640D03*
X957580Y116840D03*
X957580Y91440D03*
X1033780Y116840D03*
X1033780Y193040D03*
X1033780Y218440D03*
X1033780Y243840D03*
X1033780Y142240D03*
X1033780Y167640D03*
X1033780Y91440D03*
X271780Y167640D03*
X195580Y243840D03*
X271780Y243840D03*
X220980Y243840D03*
X246380Y167640D03*
X246380Y243840D03*
X220980Y167640D03*
X1694180Y269240D03*
X1617980Y218440D03*
X1617980Y243840D03*
X1617980Y193040D03*
X1617980Y142240D03*
X1617980Y167640D03*
X1617980Y116840D03*
X1617980Y91440D03*
X1694180Y116840D03*
X1694180Y193040D03*
X1694180Y218440D03*
X1694180Y243840D03*
X1694180Y142240D03*
X1694180Y167640D03*
X1694180Y91440D03*
X901700Y269240D03*
X825500Y218440D03*
X825500Y243840D03*
X825500Y193040D03*
X825500Y142240D03*
X825500Y167640D03*
X825500Y116840D03*
X825500Y91440D03*
X901700Y116840D03*
X901700Y193040D03*
X901700Y218440D03*
X901700Y243840D03*
X901700Y142240D03*
X901700Y167640D03*
X901700Y91440D03*
X505460Y1026160D03*
X429260Y975360D03*
X429260Y1000760D03*
X429260Y949960D03*
X429260Y899160D03*
X429260Y924560D03*
X429260Y873760D03*
X429260Y848360D03*
X505460Y873760D03*
X505460Y949960D03*
X505460Y975360D03*
X505460Y1000760D03*
X505460Y899160D03*
X505460Y924560D03*
X505460Y848360D03*
X429260Y96520D03*
X505460Y172720D03*
X505460Y121920D03*
X505460Y147320D03*
X505460Y198120D03*
X505460Y223520D03*
X505460Y248920D03*
X429260Y248920D03*
X429260Y172720D03*
X429260Y121920D03*
X429260Y147320D03*
X429260Y198120D03*
X429260Y223520D03*
X430395Y330200D03*
X506595Y406400D03*
X506595Y355600D03*
X506595Y381000D03*
X506595Y431800D03*
X506595Y457200D03*
X506595Y482600D03*
X430395Y482600D03*
X430395Y406400D03*
X430395Y355600D03*
X430395Y381000D03*
X430395Y431800D03*
X430395Y457200D03*
X124460Y894080D03*
X175260Y817880D03*
X149860Y817880D03*
X276860Y817880D03*
X200660Y817880D03*
X226060Y817880D03*
X251460Y817880D03*
X276860Y894080D03*
X200660Y894080D03*
X149860Y894080D03*
X175260Y894080D03*
X226060Y894080D03*
X251460Y894080D03*
X127000Y1026160D03*
X203200Y949960D03*
X152400Y949960D03*
X177800Y949960D03*
X228600Y949960D03*
X254000Y949960D03*
X279400Y949960D03*
X279400Y1026160D03*
X203200Y1026160D03*
X152400Y1026160D03*
X177800Y1026160D03*
X228600Y1026160D03*
X254000Y1026160D03*
G54D20*
X1557020Y91440D03*
X1424940Y340360D03*
X1160780Y848360D03*
X1292860Y594360D03*
X693420Y518160D03*
X825500Y518160D03*
X1480820Y518160D03*
X561340Y772160D03*
X693420Y772160D03*
X1348740Y772160D03*
X561340Y1026160D03*
X1216660Y1026160D03*
X957580Y269240D03*
X195580Y167640D03*
X1617980Y269240D03*
X825500Y269240D03*
X429260Y1026160D03*
X505460Y96520D03*
X506595Y330200D03*
X124460Y817880D03*
X127000Y949960D03*
G54D21*
X355600Y142240D03*
X386080Y142240D03*
X355600Y269240D03*
X386080Y269240D03*
X1848595Y440824D03*
X1848595Y466224D03*
X1849402Y517480D03*
X1849402Y542880D03*
G54D22*
X1780540Y1239520D03*
X1678940Y1239520D03*
X1780540Y1087120D03*
X1755140Y1087120D03*
X1704340Y1087120D03*
X1755140Y1239520D03*
X1704340Y1239520D03*
X1678940Y1087120D03*
X1729740Y1087120D03*
X1729740Y1239520D03*
X1353820Y1239520D03*
X1252220Y1239520D03*
X1353820Y1087120D03*
X1328420Y1087120D03*
X1277620Y1087120D03*
X1328420Y1239520D03*
X1277620Y1239520D03*
X1252220Y1087120D03*
X1303020Y1087120D03*
X1303020Y1239520D03*
X1394460Y1239520D03*
X1496060Y1087120D03*
X1470660Y1087120D03*
X1419860Y1087120D03*
X1470660Y1239520D03*
X1419860Y1239520D03*
X1394460Y1087120D03*
X1445260Y1087120D03*
X1445260Y1239520D03*
X1496060Y1239520D03*
X1638300Y1239520D03*
X1536700Y1239520D03*
X1638300Y1087120D03*
X1612900Y1087120D03*
X1562100Y1087120D03*
X1612900Y1239520D03*
X1562100Y1239520D03*
X1536700Y1087120D03*
X1587500Y1087120D03*
X1587500Y1239520D03*
X652780Y1239520D03*
X652780Y1087120D03*
X627380Y1087120D03*
X576580Y1087120D03*
X627380Y1239520D03*
X576580Y1239520D03*
X551180Y1087120D03*
X601980Y1087120D03*
X601980Y1239520D03*
X551180Y1239520D03*
X693420Y1239520D03*
X795020Y1087120D03*
X769620Y1087120D03*
X718820Y1087120D03*
X769620Y1239520D03*
X718820Y1239520D03*
X693420Y1087120D03*
X744220Y1087120D03*
X744220Y1239520D03*
X795020Y1239520D03*
X937260Y1239520D03*
X835660Y1239520D03*
X937260Y1087120D03*
X911860Y1087120D03*
X861060Y1087120D03*
X911860Y1239520D03*
X861060Y1239520D03*
X835660Y1087120D03*
X886460Y1087120D03*
X886460Y1239520D03*
X1079500Y1239520D03*
X977900Y1239520D03*
X1079500Y1087120D03*
X1054100Y1087120D03*
X1003300Y1087120D03*
X1054100Y1239520D03*
X1003300Y1239520D03*
X977900Y1087120D03*
X1028700Y1087120D03*
X1028700Y1239520D03*
X116840Y1178560D03*
X142240Y1178560D03*
X330200Y1178560D03*
X304800Y1178560D03*
X1778000Y762000D03*
X1778000Y736600D03*
G54D23*
X299360Y668540D03*
X299360Y733540D03*
X254360Y668540D03*
X254360Y733540D03*
X436520Y733540D03*
X391520Y668540D03*
X436520Y668540D03*
X391520Y733540D03*
X162200Y668540D03*
X162200Y733540D03*
X117200Y668540D03*
X117200Y733540D03*
G54D24*
X181694Y346626D03*
X207094Y295826D03*
X156294Y295826D03*
G54D25*
X1747520Y457200D03*
X1772920Y457200D03*
G54D26*
X1798320Y457200D03*
G54D27*
X1681480Y391160D03*
G54D28*
X1681480Y492760D03*
G54D29*
X429260Y48260D03*
X546100Y60960D03*
X607060Y368300D03*
X662940Y381000D03*
X607060Y381000D03*
X591820Y60960D03*
X170180Y63500D03*
X510540Y60960D03*
X525780Y541020D03*
X749300Y269240D03*
X568960Y83820D03*
X500380Y541020D03*
X546100Y541020D03*
G54D30*
X1772920Y408940D03*
G54D31*
X1831340Y200660D03*
X1833880Y1130300D03*
X45720Y1130300D03*
X45720Y200660D03*
G54D32*
X1831340Y271780D03*
X1833880Y1059180D03*
X45720Y1059180D03*
X45720Y271780D03*
G54D33*
X1831340Y347980D03*
X1833880Y982980D03*
X45720Y982980D03*
X45720Y347980D03*
G54D34*
X1686560Y614680D03*
X1686560Y563880D03*
X1686560Y741680D03*
X1686560Y690880D03*
X279400Y91440D03*
X330200Y91440D03*

M02*
