M48
METRIC,TZ
VER,1
FMAT,2
DETECT,ON
ATC,ON
T1C0.8000
T2C0.8890
T3C1.0000
T4C1.3124
T5C1.1810
T6C0.9000
T7C0.6000
T8C1.2000
T9C3.0000
T10C5.0000
T11C4.0000
%
T1
X81280Y631920
Y756920
X218440Y631920
Y756920
X355600Y631920
Y756920
X327660Y144240
Y269240
X690880Y1039960
X690780Y949960
X716280Y1039960
X716180Y949960
X741680Y1039960
X741580Y949960
X767080Y1039960
X766980Y949960
X792480Y1039960
X792380Y949960
X767080Y902800
X766980Y812800
X792480Y902800
X792380Y812800
X833120Y1039960
X833020Y949960
X883920Y1039960
X883820Y949960
X909320Y1039960
X909220Y949960
X858520Y1039960
X858420Y949960
X909320Y902800
X909220Y812800
X883920Y902800
X883820Y812800
X1026160Y1039960
X1026060Y949960
X975360Y1039960
X975260Y949960
X949960Y1039960
X949860Y949960
X1000760Y1039960
X1000660Y949960
X817880Y902800
X817780Y812800
X1325880Y1039960
X1325780Y949960
X1351280Y1039960
X1351180Y949960
X1376680Y1039960
X1376580Y949960
X1402080Y1039960
X1401980Y949960
X1427480Y1039960
X1427380Y949960
X1452880Y1039960
X1452780Y949960
X1117600Y1207600
X1117500Y1117600
X1143000Y1207600
X1142900Y1117600
X1168400Y1207600
X1168300Y1117600
X1193800Y1207600
X1193700Y1117600
X1219200Y1207600
X1219100Y1117600
X1427480Y902800
X1427380Y812800
X1452880Y902800
X1452780Y812800
X1478280Y902800
X1478180Y812800
X1493520Y1039960
X1493420Y949960
X1518920Y1039960
X1518820Y949960
X1544320Y1039960
X1544220Y949960
X1569720Y1039960
X1569620Y949960
X1595120Y902800
X1595020Y812800
X1569720Y902800
X1569620Y812800
X1544320Y902800
X1544220Y812800
X1610360Y1039960
X1610260Y949960
X1635760Y1039960
X1635660Y949960
X1661160Y1039960
X1661060Y949960
X1686560Y1039960
X1686460Y949960
X1711960Y1039960
X1711860Y949960
X1737360Y1039960
X1737260Y949960
X1762760Y1039960
X1762660Y949960
X411480Y1207600
X411380Y1117600
X436880Y1207600
X436780Y1117600
X462280Y1207600
X462180Y1117600
X487680Y1207600
X487580Y1117600
X513080Y1207600
X512980Y1117600
X665480Y1039960
X665380Y949960
X299360Y668540
Y733540
X254360Y668540
Y733540
X436520
X391520Y668540
X436520
X391520Y733540
X162200Y668540
Y733540
X117200Y668540
Y733540
X1780520Y661680G85X1774520Y661680
X1807520Y617680G85X1807520Y611680
X1747520Y617680G85X1747520Y611680
X648800Y1285240
X558800Y1285340
X1349840Y1285240
X1259840Y1285340
X345440Y907880
X345340Y817880
X934720Y902800
X934620Y812800
X1000760Y902800
X1000660Y812800
X1026160Y902800
X1026060Y812800
X1051560Y902800
X1051460Y812800
X205740Y1114520
Y1239520
X241300Y1114520
Y1239520
X1678400Y822960
X1803400
X218040Y111760
X193040
T2
X1480820Y91440
X1557020Y142240
Y116840
Y167640
Y218440
Y193040
Y243840
Y269240
X1480820Y243840
Y167640
Y142240
Y116840
Y218440
Y193040
Y269240
X1557020Y91440
X1348740Y340360
X1424940Y391160
Y365760
Y416560
Y467360
Y441960
Y492760
Y518160
X1348740Y492760
Y416560
Y391160
Y365760
Y467360
Y441960
Y518160
X1424940Y340360
X1084580Y848360
X1160780Y899160
Y873760
Y924560
Y975360
Y949960
Y1000760
Y1026160
X1084580Y1000760
Y924560
Y899160
Y873760
Y975360
Y949960
Y1026160
X1160780Y848360
X1216660Y594360
X1292860Y645160
Y619760
Y670560
Y721360
Y695960
Y746760
Y772160
X1216660Y746760
Y670560
Y645160
Y619760
Y721360
Y695960
Y772160
X1292860Y594360
X769620Y518160
X693420Y467360
Y492760
Y441960
Y391160
Y416560
Y365760
Y340360
X769620Y365760
Y441960
Y467360
Y492760
Y391160
Y416560
Y340360
X693420Y518160
X901700
X825500Y467360
Y492760
Y441960
Y391160
Y416560
Y365760
Y340360
X901700Y365760
Y441960
Y467360
Y492760
Y391160
Y416560
Y340360
X825500Y518160
X1557020
X1480820Y467360
Y492760
Y441960
Y391160
Y416560
Y365760
Y340360
X1557020Y365760
Y441960
Y467360
Y492760
Y391160
Y416560
Y340360
X1480820Y518160
X637540Y772160
X561340Y721360
Y746760
Y695960
Y645160
Y670560
Y619760
Y594360
X637540Y619760
Y695960
Y721360
Y746760
Y645160
Y670560
Y594360
X561340Y772160
X769620
X693420Y721360
Y746760
Y695960
Y645160
Y670560
Y619760
Y594360
X769620Y619760
Y695960
Y721360
Y746760
Y645160
Y670560
Y594360
X693420Y772160
X1424940
X1348740Y721360
Y746760
Y695960
Y645160
Y670560
Y619760
Y594360
X1424940Y619760
Y695960
Y721360
Y746760
Y645160
Y670560
Y594360
X1348740Y772160
X637540Y1026160
X561340Y975360
Y1000760
Y949960
Y899160
Y924560
Y873760
Y848360
X637540Y873760
Y949960
Y975360
Y1000760
Y899160
Y924560
Y848360
X561340Y1026160
X1292860
X1216660Y975360
Y1000760
Y949960
Y899160
Y924560
Y873760
Y848360
X1292860Y873760
Y949960
Y975360
Y1000760
Y899160
Y924560
Y848360
X1216660Y1026160
X1033780Y269240
X957580Y218440
Y243840
Y193040
Y142240
Y167640
Y116840
Y91440
X1033780Y116840
Y193040
Y218440
Y243840
Y142240
Y167640
Y91440
X957580Y269240
X271780Y167640
X195580Y243840
X271780
X220980
X246380Y167640
Y243840
X220980Y167640
X195580
X1694180Y269240
X1617980Y218440
Y243840
Y193040
Y142240
Y167640
Y116840
Y91440
X1694180Y116840
Y193040
Y218440
Y243840
Y142240
Y167640
Y91440
X1617980Y269240
X901700
X825500Y218440
Y243840
Y193040
Y142240
Y167640
Y116840
Y91440
X901700Y116840
Y193040
Y218440
Y243840
Y142240
Y167640
Y91440
X825500Y269240
X505460Y1026160
X429260Y975360
Y1000760
Y949960
Y899160
Y924560
Y873760
Y848360
X505460Y873760
Y949960
Y975360
Y1000760
Y899160
Y924560
Y848360
X429260Y1026160
Y96520
X505460Y172720
Y121920
Y147320
Y198120
Y223520
Y248920
X429260
Y172720
Y121920
Y147320
Y198120
Y223520
X505460Y96520
X430395Y330200
X506595Y406400
Y355600
Y381000
Y431800
Y457200
Y482600
X430395
Y406400
Y355600
Y381000
Y431800
Y457200
X506595Y330200
X1780540Y1239520
X1678940
X1780540Y1087120
X1755140
X1704340
X1755140Y1239520
X1704340
X1678940Y1087120
X1729740
Y1239520
X124460Y894080
X175260Y817880
X149860
X276860
X200660
X226060
X251460
X276860Y894080
X200660
X149860
X175260
X226060
X251460
X124460Y817880
X1353820Y1239520
X1252220
X1353820Y1087120
X1328420
X1277620
X1328420Y1239520
X1277620
X1252220Y1087120
X1303020
Y1239520
X1394460
X1496060Y1087120
X1470660
X1419860
X1470660Y1239520
X1419860
X1394460Y1087120
X1445260
Y1239520
X1496060
X1638300
X1536700
X1638300Y1087120
X1612900
X1562100
X1612900Y1239520
X1562100
X1536700Y1087120
X1587500
Y1239520
X127000Y1026160
X203200Y949960
X152400
X177800
X228600
X254000
X279400
Y1026160
X203200
X152400
X177800
X228600
X254000
X127000Y949960
X652780Y1239520
Y1087120
X627380
X576580
X627380Y1239520
X576580
X551180Y1087120
X601980
Y1239520
X551180
X693420
X795020Y1087120
X769620
X718820
X769620Y1239520
X718820
X693420Y1087120
X744220
Y1239520
X795020
X937260
X835660
X937260Y1087120
X911860
X861060
X911860Y1239520
X861060
X835660Y1087120
X886460
Y1239520
X1079500
X977900
X1079500Y1087120
X1054100
X1003300
X1054100Y1239520
X1003300
X977900Y1087120
X1028700
Y1239520
X116840Y1178560
X142240
X330200
X304800
X1778000Y762000
Y736600
X1686560Y614680
Y563880
Y741680
Y690880
X279400Y91440
X330200
T3
X355600Y142240
X386080
X355600Y269240
X386080
X1848595Y440824
Y466224
X1849402Y517480
Y542880
T4
X181694Y346626
X207094Y295826
X156294
T5
X1747520Y457200
X1798320
X1772920
T6
X1681480Y391160
Y492760
T7
X429260Y48260
X546100Y60960
X607060Y368300
X662940Y381000
X607060
X591820Y60960
X170180Y63500
X510540Y60960
X525780Y541020
X749300Y269240
X568960Y83820
X500380Y541020
X546100
T8
X1772920Y408940
T9
X1831340Y200660
X1833880Y1130300
X45720
Y200660
T10
X1831340Y271780
X1833880Y1059180
X45720
Y271780
T11
X1831340Y347980
X1833880Y982980
X45720
Y347980
M30
