G04 Generated by Ultiboard 14.3 *
%FSLAX34Y34*%
%MOMM*%

%ADD10C,0.0001*%
%ADD11C,0.0010*%
%ADD12C,0.1270*%


G04 ColorRGB 00FFFF for the following layer *
%LNBoard Outline*%
%LPD*%
G54D10*
G54D11*
X-10160Y1211580D02*
X109220Y1330960D01*
X1770380Y1330960D01*
X1889760Y1211580D02*
X1889760Y119380D01*
X1770380Y1330960D02*
X1889760Y1211580D01*
X109220Y0D02*
X-10160Y119380D01*
X-10160Y1211580D01*
X1770380Y0D02*
X109220Y0D01*
X1889760Y119380D02*
X1770380Y0D01*
G54D12*
X-12700Y-2540D02*
X-12700Y131064D01*
X-12700Y-2540D02*
X177800Y-2540D01*
X1892300Y-2540D02*
X1701800Y-2540D01*
X1892300Y-2540D02*
X1892300Y131064D01*
X1892300Y1333500D02*
X1892300Y1199896D01*
X1892300Y1333500D02*
X1701800Y1333500D01*
X-12700Y1333500D02*
X177800Y1333500D01*
X-12700Y1333500D02*
X-12700Y1199896D01*
X-62700Y-2540D02*
X-162700Y-2540D01*
X-112700Y-52540D02*
X-112700Y47460D01*
X-150200Y-2540D02*
G75*
D01*
G02X-150200Y-2540I37500J0*
G01*
X1942300Y-2540D02*
X2042300Y-2540D01*
X1992300Y-52540D02*
X1992300Y47460D01*
X1954800Y-2540D02*
G75*
D01*
G02X1954800Y-2540I37500J0*
G01*
X1979800Y-2540D02*
G75*
D01*
G02X1979800Y-2540I12500J0*
G01*
X-62700Y1333500D02*
X-162700Y1333500D01*
X-112700Y1283500D02*
X-112700Y1383500D01*
X-150200Y1333500D02*
G75*
D01*
G02X-150200Y1333500I37500J0*
G01*
X-137700Y1333500D02*
G75*
D01*
G02X-137700Y1333500I25000J0*
G01*
X-125200Y1333500D02*
G75*
D01*
G02X-125200Y1333500I12500J0*
G01*

M02*
